<svg width="18" height="14" viewBox="0 0 18 14" fill="none" xmlns="http://www.w3.org/2000/svg">
<path d="M12.2219 2.642C11.2488 2.05697 10.1344 1.74856 8.99894 1.75C7.86448 1.7491 6.75124 2.05749 5.77895 2.642C5.60885 2.74057 5.40685 2.7684 5.21643 2.71952C5.02602 2.67064 4.86241 2.54894 4.76082 2.38064C4.65923 2.21233 4.62779 2.01086 4.67326 1.8196C4.71873 1.62834 4.83748 1.46258 5.00394 1.358C6.21037 0.632087 7.59196 0.249005 8.99994 0.250003C10.4083 0.248823 11.7902 0.631912 12.9969 1.358C13.1605 1.46381 13.2765 1.6291 13.3203 1.81889C13.3641 2.00868 13.3324 2.20808 13.2319 2.3749C13.1313 2.54173 12.9698 2.66288 12.7815 2.71273C12.5932 2.76258 12.3919 2.73722 12.2219 2.642ZM1.65994 7.509L1.33595 7.671C1.24783 7.71506 1.1519 7.74133 1.05363 7.74832C0.955356 7.7553 0.856673 7.74286 0.763211 7.71171C0.669748 7.68055 0.583338 7.63129 0.508912 7.56674C0.434487 7.5022 0.373503 7.42362 0.329445 7.3355C0.285386 7.24739 0.259115 7.15145 0.252132 7.05318C0.245148 6.95491 0.257588 6.85623 0.288742 6.76277C0.319896 6.66931 0.369154 6.5829 0.433703 6.50847C0.498252 6.43404 0.576828 6.37306 0.664945 6.329L1.66495 5.829C1.75757 5.78287 1.85874 5.7564 1.96209 5.75127C2.06545 5.74613 2.16874 5.76244 2.26549 5.79917C2.36223 5.83589 2.45032 5.89224 2.52423 5.96466C2.59814 6.03709 2.65627 6.12402 2.69495 6.22L2.69694 6.222L2.70394 6.24L2.73894 6.318C2.77094 6.389 2.82094 6.496 2.88994 6.63C3.02994 6.898 3.24295 7.273 3.53695 7.689C4.12895 8.526 5.02195 9.493 6.25495 10.111C7.10675 10.5375 8.04736 10.7564 8.99994 10.75C9.95261 10.7561 10.8932 10.5368 11.7449 10.11C12.9779 9.493 13.8709 8.526 14.4629 7.689C14.7691 7.25642 15.0365 6.79764 15.2619 6.318L15.2959 6.239L15.3029 6.222C15.3414 6.12546 15.3995 6.03795 15.4735 5.96504C15.5476 5.89213 15.6359 5.8354 15.7331 5.79845C15.8302 5.7615 15.9339 5.74513 16.0377 5.75039C16.1415 5.75565 16.2431 5.78242 16.3359 5.829L17.3359 6.329C17.5139 6.41798 17.6492 6.57401 17.7121 6.76277C17.7751 6.95152 17.7604 7.15754 17.6714 7.3355C17.5825 7.51346 17.4264 7.64879 17.2377 7.71171C17.0489 7.77462 16.8429 7.75998 16.6649 7.671L16.3409 7.509C16.1272 7.89798 15.8901 8.27367 15.6309 8.634L15.9789 8.924C16.1317 9.05157 16.2275 9.2346 16.2454 9.43283C16.2632 9.63105 16.2015 9.82824 16.0739 9.981C15.9464 10.1338 15.7633 10.2296 15.5651 10.2474C15.3669 10.2652 15.1697 10.2036 15.0169 10.076L14.6679 9.784C14.1958 10.2719 13.6682 10.7028 13.0959 11.068L13.4069 11.633C13.503 11.8072 13.5258 12.0125 13.4705 12.2036C13.4152 12.3947 13.2862 12.556 13.1119 12.652C12.9377 12.748 12.7324 12.7709 12.5413 12.7155C12.3502 12.6602 12.189 12.5313 12.0929 12.357L11.7559 11.745C11.1121 11.9932 10.437 12.1514 9.74994 12.215V13C9.74994 13.1989 9.67093 13.3897 9.53027 13.5303C9.38962 13.671 9.19886 13.75 8.99994 13.75C8.80103 13.75 8.61027 13.671 8.46961 13.5303C8.32896 13.3897 8.24995 13.1989 8.24995 13V12.215C7.56284 12.1514 6.88781 11.9932 6.24395 11.745L5.90694 12.357C5.81094 12.5313 5.64964 12.6602 5.45854 12.7155C5.26744 12.7709 5.06219 12.748 4.88795 12.652C4.7137 12.556 4.58473 12.3947 4.5294 12.2036C4.47408 12.0125 4.49694 11.8072 4.59295 11.633L4.90495 11.068C4.33229 10.7029 3.80436 10.2719 3.33194 9.784L2.98294 10.075C2.90813 10.1431 2.82031 10.1953 2.72479 10.2285C2.62926 10.2618 2.528 10.2754 2.42709 10.2685C2.32618 10.2616 2.2277 10.2343 2.13759 10.1884C2.04748 10.1425 1.96759 10.0788 1.90273 10.0012C1.83788 9.92354 1.78939 9.83361 1.76018 9.73677C1.73098 9.63993 1.72167 9.53818 1.7328 9.43765C1.74394 9.33712 1.7753 9.23988 1.82499 9.15178C1.87468 9.06368 1.94167 8.98654 2.02194 8.925L2.36894 8.635C2.10976 8.27435 1.87366 7.89832 1.65994 7.509Z" fill="black"/>
</svg>
