<svg id="Layer_1" viewBox="0 0 24 24" xmlns="http://www.w3.org/2000/svg" data-name="Layer 1"><path d="m14.731 19.736 2.391 2.391c-1.43.579-3.123.874-5.122.874-6.755 0-10.322-3.394-10.904-10.375-.069-.826.544-1.551 1.37-1.62.829-.057 1.55.545 1.619 1.37.458 5.487 2.676 7.625 7.915 7.625 1.023 0 1.929-.089 2.731-.265zm-2.731-1.736c.337 0 .649-.024.95-.058l-6.926-6.926c.142 3.254 1.113 6.984 5.976 6.984zm10.561 2.44-1.527-1.527c1.032-1.599 1.651-3.665 1.87-6.288.069-.826-.544-1.551-1.37-1.62-.835-.06-1.551.545-1.619 1.37-.15 1.801-.508 3.232-1.074 4.344l-1.71-1.71c.294-.627.503-1.306.632-2.01h-2.763c-.552 0-1-.448-1-1s.448-1 1-1h2.977c.015-.339.023-.675.023-.999v-.002c0-.324-.008-.66-.023-.999h-2.977c-.552 0-1-.447-1-1s.448-1 1-1h2.763c-.48-2.617-1.878-5-5.763-5-2.748 0-4.243 1.198-5.057 2.823l-3.382-3.382c-.586-.586-1.535-.586-2.121 0s-.586 1.535 0 2.121l18.999 19.001c.586.586 1.535.586 2.121 0s.586-1.535 0-2.121z"/></svg>