<svg width="24" height="24" viewBox="0 0 24 24" fill="none" xmlns="http://www.w3.org/2000/svg">
<path d="M13.0001 6C13.0001 5.73478 12.8947 5.48043 12.7072 5.29289C12.5196 5.10536 12.2653 5 12.0001 5C11.7348 5 11.4805 5.10536 11.2929 5.29289C11.1054 5.48043 11.0001 5.73478 11.0001 6V6.56C10.4409 6.62829 9.89095 6.75773 9.36005 6.946L9.12605 6.522C8.99809 6.28967 8.78307 6.11769 8.5283 6.0439C8.27353 5.9701 7.99988 6.00053 7.76755 6.1285C7.53522 6.25647 7.36324 6.47149 7.28945 6.72625C7.21565 6.98102 7.24609 7.25467 7.37405 7.487L7.57405 7.849C7.10205 8.167 6.68405 8.519 6.31705 8.877L6.14405 8.733C5.94014 8.56716 5.67913 8.48827 5.4175 8.51339C5.15587 8.53852 4.91464 8.66564 4.74602 8.86725C4.57739 9.06887 4.49492 9.32877 4.51645 9.59072C4.53798 9.85267 4.66177 10.0956 4.86105 10.267L5.03205 10.41L4.44705 11.106C4.32918 11.0424 4.19973 11.0032 4.0664 10.9906C3.93307 10.978 3.79857 10.9923 3.67088 11.0327C3.54319 11.0731 3.42491 11.1387 3.32307 11.2257C3.22122 11.3126 3.13788 11.4192 3.07798 11.539C3.01809 11.6588 2.98287 11.7893 2.97441 11.923C2.96595 12.0567 2.98442 12.1906 3.02873 12.317C3.07304 12.4434 3.14228 12.5596 3.23235 12.6587C3.32242 12.7578 3.43147 12.8378 3.55305 12.894L4.55305 13.394C4.67678 13.4559 4.81201 13.4915 4.95019 13.4984C5.08837 13.5054 5.2265 13.4836 5.35583 13.4345C5.48515 13.3853 5.60288 13.3099 5.70154 13.2129C5.80021 13.1159 5.87768 12.9995 5.92905 12.871C6.66905 11.315 7.80105 9.898 9.36705 9.113C10.1842 8.70412 11.0864 8.49408 12.0001 8.5C12.9138 8.49408 13.8159 8.70412 14.6331 9.113C16.0521 9.823 17.1641 11.087 17.8881 12.485L17.9811 12.674C18.1331 12.991 18.2801 13.296 18.6451 13.434C18.7742 13.4831 18.9122 13.5049 19.0502 13.498C19.1883 13.4912 19.3234 13.4557 19.4471 13.394L20.4471 12.894C20.5686 12.8378 20.6777 12.7578 20.7678 12.6587C20.8578 12.5596 20.9271 12.4434 20.9714 12.317C21.0157 12.1906 21.0342 12.0567 21.0257 11.923C21.0172 11.7893 20.982 11.6588 20.9221 11.539C20.8622 11.4192 20.7789 11.3126 20.677 11.2257C20.5752 11.1387 20.4569 11.0731 20.3292 11.0327C20.2015 10.9923 20.067 10.978 19.9337 10.9906C19.8004 11.0032 19.6709 11.0424 19.5531 11.106L19.4431 11.161C19.3131 10.935 19.1551 10.681 18.9681 10.41L19.1391 10.267C19.3338 10.0944 19.4537 9.85275 19.4731 9.59325C19.4926 9.33375 19.4101 9.07689 19.2433 8.87721C19.0764 8.67753 18.8383 8.55077 18.5794 8.52384C18.3206 8.49692 18.0615 8.57195 17.8571 8.733L17.6831 8.877C17.2962 8.4972 16.8758 8.15314 16.4271 7.849L16.6271 7.487C16.755 7.25454 16.7854 6.98076 16.7115 6.7259C16.6376 6.47104 16.4655 6.25597 16.2331 6.128C16.0006 6.00003 15.7268 5.96965 15.472 6.04354C15.2171 6.11743 15.002 6.28954 14.8741 6.522L14.6411 6.946C14.1098 6.758 13.5595 6.6289 13.0001 6.561V6Z" fill="black"/>
<path d="M12 18.5C12.9283 18.5 13.8185 18.1313 14.4749 17.4749C15.1313 16.8185 15.5 15.9283 15.5 15C15.5 14.0717 15.1313 13.1815 14.4749 12.5251C13.8185 11.8687 12.9283 11.5 12 11.5C11.0717 11.5 10.1815 11.8687 9.52513 12.5251C8.86875 13.1815 8.5 14.0717 8.5 15C8.5 15.9283 8.86875 16.8185 9.52513 17.4749C10.1815 18.1313 11.0717 18.5 12 18.5Z" fill="black"/>
</svg>
